<svg width="67" height="64" viewBox="0 0 67 64" fill="none" xmlns="http://www.w3.org/2000/svg">
<g clip-path="url(#clip0)">
<path d="M33.0323 28.6968C32.8715 28.6968 32.7118 28.6616 32.5632 28.5922L13.8449 19.7836C13.4595 19.6019 13.2129 19.2133 13.2129 18.7872C13.2129 18.361 13.4595 17.9724 13.8449 17.7907L32.5632 8.98207C32.8605 8.84224 33.204 8.84224 33.5013 8.98207L52.2196 17.7907C52.605 17.9724 52.8516 18.361 52.8516 18.7872C52.8516 19.2133 52.605 19.6019 52.2196 19.7836L33.5013 28.5922C33.3527 28.6616 33.193 28.6968 33.0323 28.6968V28.6968ZM16.9004 18.7872L33.0323 26.3791L49.1641 18.7872L33.0323 11.1952L16.9004 18.7872Z" fill="#87BEEE"/>
<path d="M33.0323 37.5054C32.8638 37.5054 32.6942 37.4669 32.5401 37.3898L19.3272 30.7834C18.9539 30.5962 18.7183 30.2152 18.7183 29.7979V21.378C18.7183 21.0014 18.911 20.6502 19.2292 20.4487C19.5474 20.2461 19.9471 20.223 20.2873 20.3815L33.0323 26.3791L45.7761 20.3815C46.1175 20.2219 46.5171 20.2461 46.8342 20.4487C47.1536 20.6502 47.3463 21.0014 47.3463 21.378V29.7979C47.3463 30.2152 47.1106 30.5962 46.7374 30.7834L33.5244 37.3898C33.3703 37.4669 33.2007 37.5054 33.0323 37.5054V37.5054ZM20.9204 29.1175L33.0323 35.1734L45.1441 29.1175V23.1133L33.5013 28.5922C33.204 28.7321 32.8605 28.7321 32.5632 28.5922L20.9204 23.1133V29.1175Z" fill="#87BEEE"/>
<path d="M51.7505 19.8882H33.0323C32.4245 19.8882 31.9312 19.3949 31.9312 18.7871C31.9312 18.1793 32.4245 17.686 33.0323 17.686H51.7505C52.3583 17.686 52.8516 18.1793 52.8516 18.7871C52.8516 19.3949 52.3583 19.8882 51.7505 19.8882Z" fill="#87BEEE"/>
<path d="M51.7505 29.7979C51.1427 29.7979 50.6495 29.3046 50.6495 28.6968V18.7871C50.6495 18.1793 51.1427 17.686 51.7505 17.686C52.3583 17.686 52.8516 18.1793 52.8516 18.7871V28.6968C52.8516 29.3046 52.3583 29.7979 51.7505 29.7979Z" fill="#87BEEE"/>
<path d="M33.0323 22.0903C32.4245 22.0903 31.9312 21.5971 31.9312 20.9893V16.585C31.9312 15.9772 32.4245 15.4839 33.0323 15.4839C33.64 15.4839 34.1333 15.9772 34.1333 16.585V20.9893C34.1333 21.5971 33.64 22.0903 33.0323 22.0903Z" fill="#87BEEE"/>
<path d="M49.5473 33.1012C49.3381 33.1012 49.1256 33.0418 48.9373 32.9162C48.4319 32.5793 48.2954 31.8955 48.6323 31.389L50.8344 28.0858C51.1714 27.5793 51.854 27.4417 52.3616 27.7808C52.867 28.1178 53.0036 28.8015 52.6666 29.308L50.4645 32.6112C50.252 32.9294 49.9029 33.1012 49.5473 33.1012Z" fill="#87BEEE"/>
<path d="M53.9538 33.1012C53.5981 33.1012 53.2491 32.9294 53.0366 32.6112L50.8344 29.308C50.4975 28.8026 50.634 28.1178 51.1394 27.7808C51.6448 27.4417 52.3286 27.5793 52.6666 28.0858L54.8688 31.389C55.2057 31.8944 55.0692 32.5793 54.5638 32.9162C54.3755 33.0418 54.163 33.1012 53.9538 33.1012Z" fill="#87BEEE"/>
<path d="M33.0323 32C32.4245 32 31.9312 31.5067 31.9312 30.8989V27.5957C31.9312 26.9879 32.4245 26.4946 33.0323 26.4946C33.64 26.4946 34.1333 26.9879 34.1333 27.5957V30.8989C34.1333 31.5067 33.64 32 33.0323 32Z" fill="#87BEEE"/>
<path d="M64.9634 41.9097H1.10108C0.493282 41.9097 0 41.4164 0 40.8086V4.47425C0 2.04528 1.97643 0.0688477 4.4054 0.0688477H61.6591C64.0881 0.0688477 66.0645 2.04528 66.0645 4.47425V40.8086C66.0645 41.4164 65.5712 41.9097 64.9634 41.9097V41.9097ZM2.20215 39.7076H63.8624V4.47425C63.8624 3.25866 62.8747 2.271 61.6591 2.271H4.4054C3.18982 2.271 2.20215 3.25866 2.20215 4.47425V39.7076Z" fill="#87BEEE"/>
<path d="M61.6591 50.7183H4.4054C1.97643 50.7183 0 48.7418 0 46.3129V40.8086C0 40.2008 0.493282 39.7075 1.10108 39.7075H64.9634C65.5712 39.7075 66.0645 40.2008 66.0645 40.8086V46.3129C66.0645 48.7418 64.0881 50.7183 61.6591 50.7183V50.7183ZM2.20215 41.9097V46.3129C2.20215 47.5285 3.18982 48.5161 4.4054 48.5161H61.6591C62.8747 48.5161 63.8624 47.5285 63.8624 46.3129V41.9097H2.20215Z" fill="#87BEEE"/>
<path d="M36.3355 46.314H29.729C29.1212 46.314 28.628 45.8207 28.628 45.2129C28.628 44.6051 29.1212 44.1118 29.729 44.1118H36.3355C36.9433 44.1118 37.4366 44.6051 37.4366 45.2129C37.4366 45.8207 36.9433 46.314 36.3355 46.314Z" fill="#87BEEE"/>
<path d="M60.5592 41.9097H5.50539C4.89759 41.9097 4.40431 41.4164 4.40431 40.8086V5.57422C4.40431 4.96643 4.89759 4.47314 5.50539 4.47314H60.5592C61.1669 4.47314 61.6602 4.96643 61.6602 5.57422V40.8086C61.6602 41.4164 61.1669 41.9097 60.5592 41.9097ZM6.60646 39.7076H59.4581V6.6753H6.60646V39.7076Z" fill="#87BEEE"/>
<path d="M47.3462 63.9312H18.7183C16.8971 63.9312 15.4151 62.4491 15.4151 60.6279C15.4151 58.8068 16.8971 57.3247 18.7183 57.3247H47.3462C49.1674 57.3247 50.6495 58.8068 50.6495 60.6279C50.6495 62.4491 49.1674 63.9312 47.3462 63.9312ZM18.7183 59.5269C18.1116 59.5269 17.6172 60.0212 17.6172 60.6279C17.6172 61.2346 18.1116 61.729 18.7183 61.729H47.3462C47.9529 61.729 48.4473 61.2346 48.4473 60.6279C48.4473 60.0212 47.9529 59.5269 47.3462 59.5269H18.7183Z" fill="#87BEEE"/>
<path d="M45.1441 59.5269H20.9204C20.3126 59.5269 19.8194 59.0336 19.8194 58.4258C19.8194 57.818 20.3126 57.3247 20.9204 57.3247C24.5738 57.3247 26.4258 54.7317 26.4258 49.6172C26.4258 49.0094 26.9191 48.5161 27.5269 48.5161H38.5376C39.1454 48.5161 39.6387 49.0094 39.6387 49.6172C39.6387 54.7317 41.4907 57.3247 45.1441 57.3247C45.7519 57.3247 46.2452 57.818 46.2452 58.4258C46.2452 59.0336 45.7519 59.5269 45.1441 59.5269ZM26.2838 57.3247H39.7818C38.4253 55.8228 37.627 53.5866 37.4674 50.7183H28.5982C28.4375 53.5866 27.6403 55.8228 26.2838 57.3247Z" fill="#87BEEE"/>
</g>
<defs>
<clipPath id="clip0">
<rect width="66.0645" height="64" fill="white"/>
</clipPath>
</defs>
</svg>
