<svg width="65" height="64" viewBox="0 0 65 64" fill="none" xmlns="http://www.w3.org/2000/svg">
<g clip-path="url(#clip0)">
<path d="M10.777 26.7942C10.5595 26.788 10.3404 26.788 10.1229 26.7942C8.40935 26.8446 6.73569 27.3233 5.25464 28.1866C3.77359 29.0499 2.53232 30.2704 1.64409 31.7366C0.725943 33.2301 0.196425 34.9297 0.103851 36.6803C0.0112777 38.431 0.358597 40.177 1.11411 41.759L8.06791 56.3587C8.28231 56.8088 8.61986 57.189 9.04145 57.4551C9.46304 57.7213 9.95141 57.8626 10.45 57.8626C10.9486 57.8626 11.4369 57.7213 11.8585 57.4551C12.2801 57.189 12.6177 56.8088 12.8321 56.3587L19.7859 41.759C20.5414 40.177 20.8887 38.4311 20.7961 36.6804C20.7036 34.9297 20.174 33.2301 19.2559 31.7366C18.3677 30.2704 17.1264 29.0499 15.6453 28.1866C14.1642 27.3233 12.4906 26.8446 10.777 26.7942V26.7942ZM18.6068 41.1974L11.653 55.797C11.5447 56.0243 11.3743 56.2163 11.1614 56.3507C10.9485 56.4851 10.7018 56.5564 10.45 56.5564C10.1983 56.5564 9.95164 56.4851 9.73873 56.3507C9.52582 56.2163 9.35535 56.0243 9.24705 55.797L2.29325 41.1973C1.63162 39.8114 1.32756 38.2819 1.40883 36.7484C1.4901 35.2148 1.95411 33.726 2.75852 32.4178C4.38135 29.7629 7.07945 28.1891 10.1606 28.0998C10.2567 28.0971 10.3533 28.0957 10.4501 28.0957C10.547 28.0956 10.6434 28.097 10.7394 28.0998C13.8206 28.189 16.5187 29.7629 18.1416 32.4178C18.946 33.726 19.41 35.2148 19.4913 36.7484C19.5725 38.282 19.2685 39.8115 18.6068 41.1974V41.1974Z" fill="#87BEEE"/>
<path d="M10.4501 31.1323C8.94786 31.1325 7.49536 31.6706 6.35548 32.649C5.2156 33.6274 4.46368 34.9816 4.23581 36.4665C4.00795 37.9513 4.3192 39.4687 5.11323 40.7439C5.90726 42.0191 7.1316 42.9679 8.56462 43.4186C8.72988 43.4705 8.90898 43.4546 9.06252 43.3744C9.21607 43.2943 9.33148 43.1564 9.38338 42.9911C9.43527 42.8259 9.41939 42.6468 9.33923 42.4932C9.25908 42.3397 9.12121 42.2243 8.95595 42.1724C7.93422 41.8515 7.04305 41.21 6.41457 40.3429C5.78608 39.4758 5.45372 38.4292 5.46675 37.3584C5.47979 36.2875 5.83752 35.2494 6.48693 34.3978C7.13634 33.5463 8.04285 32.9266 9.07209 32.6307C10.1013 32.3348 11.1985 32.3785 12.201 32.7552C13.2035 33.1318 14.058 33.8215 14.6377 34.722C15.2174 35.6224 15.4916 36.6857 15.4195 37.7542C15.3475 38.8227 14.9331 39.8395 14.2377 40.654C14.1252 40.7857 14.0695 40.9567 14.083 41.1293C14.0966 41.302 14.1781 41.4623 14.3098 41.5748C14.4414 41.6874 14.6124 41.743 14.7851 41.7295C14.9578 41.716 15.118 41.6344 15.2306 41.5027C16.0108 40.5892 16.513 39.4711 16.6776 38.281C16.8423 37.0909 16.6625 35.8786 16.1595 34.7875C15.6565 33.6964 14.8515 32.7722 13.8396 32.1245C12.8278 31.4767 11.6515 31.1324 10.4501 31.1323V31.1323Z" fill="#87BEEE"/>
<path d="M12.6054 41.9109C12.1383 42.1356 11.6387 42.2854 11.125 42.3547C10.9533 42.3779 10.7979 42.4684 10.693 42.6061C10.588 42.7439 10.5421 42.9178 10.5653 43.0894C10.5885 43.261 10.6789 43.4164 10.8167 43.5214C10.9545 43.6263 11.1283 43.6723 11.3 43.6491C11.9494 43.5614 12.581 43.3721 13.1715 43.0879C13.3262 43.012 13.4446 42.878 13.5009 42.7152C13.5572 42.5524 13.5469 42.3739 13.4723 42.2187C13.3976 42.0634 13.2646 41.9439 13.1022 41.8863C12.9399 41.8286 12.7613 41.8375 12.6055 41.9109L12.6054 41.9109Z" fill="#87BEEE"/>
<path d="M10.4501 59.4409C8.22315 59.4409 5.96878 60.2083 5.96878 61.6749C5.96878 63.1416 8.22324 63.9088 10.4502 63.9088C12.6771 63.9088 14.9315 63.1415 14.9315 61.6749C14.9315 60.2083 12.677 59.4409 10.4501 59.4409ZM12.9077 62.1891C12.2713 62.4519 11.3755 62.6027 10.4501 62.6027C9.5247 62.6027 8.62879 62.4519 7.9923 62.1891C7.39957 61.9444 7.27484 61.7107 7.27484 61.6749C7.27484 61.6391 7.39957 61.4054 7.9923 61.1606C8.62879 60.8978 9.5247 60.747 10.4501 60.747C11.3755 60.747 12.2713 60.8978 12.9077 61.1606C13.5005 61.4054 13.6252 61.6391 13.6252 61.6749C13.6252 61.7107 13.5005 61.9444 12.9077 62.1891Z" fill="#87BEEE"/>
<path d="M62.617 31.7365C61.7288 30.2703 60.4875 29.0498 59.0064 28.1865C57.5253 27.3232 55.8517 26.8446 54.1381 26.7942C53.921 26.788 53.7015 26.788 53.4841 26.7942C51.7706 26.8446 50.0969 27.3232 48.6159 28.1865C47.1348 29.0498 45.8935 30.2703 45.0053 31.7365C44.0871 33.23 43.5576 34.9296 43.465 36.6803C43.3724 38.431 43.7197 40.177 44.4752 41.759L51.4292 56.3587C51.6435 56.8088 51.9811 57.189 52.4026 57.4551C52.8242 57.7213 53.3126 57.8626 53.8112 57.8626C54.3097 57.8626 54.7981 57.7213 55.2197 57.4551C55.6413 57.189 55.9788 56.8088 56.1932 56.3587L63.1471 41.759C63.9026 40.177 64.2499 38.431 64.1573 36.6803C64.0647 34.9296 63.5352 33.23 62.617 31.7365V31.7365ZM61.9681 41.1974L55.014 55.797C54.9057 56.0243 54.7352 56.2163 54.5224 56.3507C54.3095 56.4851 54.0629 56.5564 53.8111 56.5564C53.5593 56.5564 53.3127 56.4851 53.0998 56.3507C52.887 56.2163 52.7165 56.0243 52.6082 55.797L45.6543 41.1974C44.9927 39.8115 44.6886 38.2819 44.7699 36.7483C44.8512 35.2148 45.3153 33.726 46.1197 32.4178C47.7425 29.7629 50.4406 28.1891 53.5218 28.0998C53.7139 28.0944 53.9086 28.0944 54.1005 28.0998C57.1817 28.1891 59.8798 29.7629 61.5026 32.4178C62.3071 33.726 62.7711 35.2148 62.8524 36.7483C62.9337 38.2819 62.6297 39.8115 61.9681 41.1974V41.1974Z" fill="#87BEEE"/>
<path d="M53.8112 31.1323C52.6097 31.1323 51.4334 31.4766 50.4215 32.1244C49.4097 32.7722 48.6046 33.6963 48.1016 34.7874C47.5986 35.8785 47.4188 37.0909 47.5835 38.281C47.7481 39.4711 48.2504 40.5892 49.0307 41.5027C49.1432 41.6344 49.3035 41.716 49.4761 41.7295C49.6488 41.743 49.8198 41.6874 49.9515 41.5748C50.0831 41.4623 50.1647 41.302 50.1782 41.1293C50.1917 40.9567 50.1361 40.7857 50.0235 40.654C49.3288 39.8398 48.9148 38.8234 48.843 37.7554C48.7712 36.6875 49.0454 35.6248 49.625 34.7249C50.2045 33.825 51.0586 33.1358 52.0606 32.7594C53.0626 32.383 54.1592 32.3394 55.1879 32.6351C56.2166 32.9309 57.1226 33.5502 57.7718 34.4012C58.4209 35.2523 58.7785 36.2899 58.7917 37.3602C58.8048 38.4304 58.4728 39.4765 57.8448 40.3433C57.2168 41.2101 56.3263 41.8514 55.3052 42.1724C55.1399 42.2243 55.0021 42.3397 54.9219 42.4932C54.8417 42.6468 54.8259 42.8259 54.8778 42.9911C54.9297 43.1564 55.0451 43.2943 55.1986 43.3744C55.3522 43.4546 55.5313 43.4705 55.6965 43.4186C57.1295 42.9679 58.3539 42.0191 59.1479 40.7439C59.942 39.4687 60.2533 37.9514 60.0254 36.4665C59.7976 34.9817 59.0456 33.6275 57.9058 32.649C56.7659 31.6706 55.3134 31.1325 53.8112 31.1323V31.1323Z" fill="#87BEEE"/>
<path d="M53.1363 42.3548C52.6225 42.2855 52.1229 42.1357 51.6557 41.911C51.4996 41.8359 51.3201 41.8259 51.1566 41.8832C50.9931 41.9405 50.8591 42.0604 50.7841 42.2165C50.709 42.3726 50.699 42.5521 50.7563 42.7156C50.8136 42.879 50.9335 43.013 51.0896 43.0881C51.6802 43.3722 52.3118 43.5615 52.9613 43.6492C53.0463 43.6607 53.1327 43.6553 53.2156 43.6334C53.2985 43.6115 53.3763 43.5735 53.4446 43.5215C53.5128 43.4696 53.5701 43.4047 53.6132 43.3305C53.6564 43.2564 53.6845 43.1745 53.696 43.0895C53.7075 43.0045 53.7021 42.9181 53.6802 42.8352C53.6583 42.7523 53.6203 42.6745 53.5683 42.6063C53.5163 42.5381 53.4514 42.4807 53.3773 42.4376C53.3032 42.3945 53.2213 42.3663 53.1363 42.3548L53.1363 42.3548Z" fill="#87BEEE"/>
<path d="M53.8112 59.4409C51.5843 59.4409 49.3299 60.2083 49.3299 61.6749C49.3299 63.1416 51.5843 63.9088 53.8112 63.9088C56.0381 63.9088 58.2925 63.1415 58.2925 61.6749C58.2925 60.2083 56.0381 59.4409 53.8112 59.4409ZM56.2689 62.1891C55.6324 62.4519 54.7366 62.6027 53.8112 62.6027C52.8858 62.6027 51.99 62.4519 51.3536 62.1891C50.7608 61.9444 50.6361 61.7107 50.6361 61.6749C50.6361 61.6391 50.7608 61.4054 51.3536 61.1606C51.99 60.8978 52.8858 60.747 53.8112 60.747C54.7366 60.747 55.6324 60.8978 56.2689 61.1606C56.8616 61.4054 56.9863 61.6391 56.9863 61.6749C56.9863 61.7107 56.8616 61.9444 56.2689 62.1891Z" fill="#87BEEE"/>
<path d="M47.4576 22.7722C47.7484 22.7909 48.0399 22.7498 48.3142 22.6514C48.5885 22.553 48.8397 22.3994 49.0523 22.2002C49.2649 22.0009 49.4344 21.7601 49.5503 21.4928C49.6663 21.2255 49.7261 20.9372 49.7263 20.6458L49.7733 4.33626C49.7719 3.81812 49.5825 3.31811 49.2401 2.92917C48.8978 2.54023 48.4259 2.28881 47.9121 2.22165C47.596 2.18094 47.2284 2.13806 46.8204 2.09725L46.8209 1.9194C46.8219 1.56577 46.6972 1.22329 46.4691 0.953055C46.2411 0.682819 45.9244 0.502411 45.5756 0.444017V0.443887C44.3668 0.239413 41.9593 -0.06588 39.4176 0.18658C36.171 0.509193 33.7667 1.62256 32.2716 3.49564C32.1931 3.59602 32.0927 3.6772 31.9781 3.73303C31.8635 3.78885 31.7376 3.81787 31.6102 3.81787C31.4827 3.81787 31.3569 3.78885 31.2423 3.73303C31.1277 3.6772 31.0273 3.59602 30.9487 3.49564C29.4535 1.62258 27.0492 0.509323 23.8026 0.186607C21.2609 -0.0659976 18.8535 0.239413 17.6446 0.443913C17.2961 0.502181 16.9796 0.682325 16.7515 0.952234C16.5234 1.22214 16.3986 1.56427 16.3993 1.91764L16.3988 2.09742C15.9918 2.13791 15.6251 2.18089 15.31 2.22166C14.7966 2.28886 14.325 2.54015 13.983 2.92884C13.6409 3.31753 13.4515 3.81719 13.4501 4.33497L13.4031 20.6445C13.403 20.936 13.4628 21.2244 13.5787 21.4919C13.6945 21.7594 13.864 22.0003 14.0766 22.1997C14.2892 22.3991 14.5405 22.5528 14.8149 22.6513C15.0892 22.7497 15.3809 22.7909 15.6718 22.7722C22.9378 22.2994 26.9946 24.0783 29.117 25.6535C29.8231 26.1826 30.6817 26.4685 31.564 26.4685C32.4464 26.4685 33.3049 26.1826 34.0111 25.6535C36.1348 24.0783 40.1916 22.2994 47.4576 22.7722ZM17.7054 1.91941C17.7051 1.87459 17.7207 1.83112 17.7495 1.79674C17.7782 1.76237 17.8183 1.73932 17.8624 1.73172C19.9305 1.38168 26.9132 0.533708 29.9279 4.31056C30.1927 4.64315 30.5502 4.88983 30.9551 5.01944L30.9126 16.8689C30.9122 16.9547 30.9288 17.0397 30.9614 17.1191C30.9939 17.1984 31.0418 17.2706 31.1022 17.3314C31.1626 17.3923 31.2344 17.4407 31.3136 17.4738C31.3927 17.5069 31.4776 17.5241 31.5633 17.5244H31.5656C31.7384 17.5244 31.9042 17.4559 32.0266 17.3339C32.149 17.212 32.2181 17.0465 32.2187 16.8737L32.2612 5.02057C32.6677 4.89131 33.0266 4.64417 33.2924 4.31053C36.3069 0.533865 43.2895 1.38164 45.3577 1.73176C45.4016 1.73922 45.4415 1.76198 45.4702 1.79601C45.499 1.83004 45.5147 1.87314 45.5147 1.91768L45.4703 18.433C45.4706 18.4593 45.4652 18.4854 45.4546 18.5094C45.444 18.5335 45.4284 18.555 45.4088 18.5725C45.3888 18.5905 45.3653 18.6043 45.3398 18.6129C45.3142 18.6214 45.2872 18.6247 45.2604 18.6225C37.8669 17.9625 33.9457 20.1917 32.2187 21.6484V20.0949C32.2187 19.9217 32.1499 19.7556 32.0274 19.6331C31.9049 19.5106 31.7388 19.4418 31.5656 19.4418C31.3924 19.4418 31.2263 19.5106 31.1038 19.6331C30.9814 19.7556 30.9125 19.9217 30.9125 20.0949V21.6482C29.3993 20.372 26.2027 18.5033 20.4618 18.5033C19.6499 18.5033 18.7868 18.5407 17.8707 18.6225C17.8439 18.6247 17.8169 18.6215 17.7914 18.6129C17.7659 18.6043 17.7424 18.5906 17.7224 18.5726C17.703 18.5553 17.6874 18.534 17.6768 18.5103C17.6662 18.4865 17.6608 18.4608 17.6609 18.4348L17.7054 1.91941ZM33.2326 24.606C32.749 24.9612 32.1645 25.1527 31.5645 25.1524C30.9644 25.1522 30.3801 24.9603 29.8968 24.6047C27.8488 23.0856 24.1759 21.389 17.9823 21.389C17.2221 21.389 16.4241 21.4138 15.5869 21.4687C15.4744 21.4759 15.3615 21.46 15.2554 21.422C15.1493 21.3839 15.052 21.3245 14.9698 21.2474C14.8875 21.1702 14.822 21.0771 14.7771 20.9736C14.7323 20.8701 14.7092 20.7586 14.7092 20.6458L14.7562 4.33626C14.7565 4.1355 14.8298 3.94171 14.9625 3.79103C15.0951 3.64035 15.2781 3.54306 15.4772 3.51732C15.7368 3.48347 16.046 3.44712 16.3953 3.41196L16.3548 18.433C16.3549 18.6409 16.3984 18.8465 16.4823 19.0367C16.5663 19.2269 16.6889 19.3975 16.8424 19.5377C16.996 19.6779 17.177 19.7846 17.374 19.851C17.5711 19.9174 17.7797 19.942 17.9868 19.9233C25.0521 19.2931 28.6469 21.4072 30.1612 22.7236C30.5516 23.0604 31.05 23.2457 31.5656 23.2457C32.0812 23.2457 32.5797 23.0604 32.9701 22.7236C34.4844 21.407 38.0795 19.2931 45.1443 19.9233C45.3513 19.942 45.5598 19.9174 45.7567 19.8511C45.9536 19.7848 46.1346 19.6783 46.2881 19.5383C46.4416 19.3983 46.5643 19.2279 46.6484 19.0379C46.7325 18.8479 46.7761 18.6425 46.7765 18.4347L46.8168 3.41115C47.1702 3.44673 47.483 3.48332 47.7449 3.51731C47.944 3.5429 48.1269 3.63992 48.2598 3.79032C48.3927 3.94072 48.4664 4.13426 48.4672 4.33494L48.4202 20.6445C48.4204 20.7574 48.3974 20.8691 48.3526 20.9727C48.3079 21.0763 48.2423 21.1696 48.16 21.2469C48.0778 21.3242 47.9805 21.3837 47.8743 21.4219C47.768 21.46 47.6551 21.4759 47.5425 21.4687C39.8795 20.9697 35.5314 22.8989 33.2326 24.606H33.2326Z" fill="#87BEEE"/>
<path d="M35.3541 10.523C35.5041 10.5231 35.6496 10.4717 35.7662 10.3772C35.8587 10.3027 38.0769 8.56119 42.2443 9.65704C42.4118 9.70108 42.5899 9.67678 42.7395 9.58947C42.8891 9.50216 42.9979 9.359 43.042 9.19148C43.086 9.02396 43.0617 8.8458 42.9744 8.6962C42.8871 8.5466 42.7439 8.43781 42.5764 8.39377C37.7235 7.11832 35.0471 9.27681 34.9355 9.36935C34.8324 9.45523 34.7583 9.57081 34.7233 9.70032C34.6883 9.82984 34.694 9.967 34.7398 10.0931C34.7856 10.2192 34.8691 10.3282 34.979 10.4051C35.089 10.482 35.2199 10.5232 35.3541 10.523Z" fill="#87BEEE"/>
<path d="M35.3541 13.5338C35.5041 13.5339 35.6496 13.4825 35.7662 13.3881C35.8586 13.3135 38.0767 11.5722 42.2443 12.6678C42.4118 12.7119 42.5899 12.6876 42.7395 12.6003C42.8891 12.513 42.9979 12.3698 43.042 12.2023C43.086 12.0348 43.0617 11.8566 42.9744 11.707C42.8871 11.5574 42.7439 11.4486 42.5764 11.4046C37.723 10.1289 35.0471 12.2877 34.9355 12.3802C34.8324 12.466 34.7583 12.5816 34.7233 12.7111C34.6883 12.8407 34.694 12.9778 34.7398 13.1039C34.7856 13.2301 34.8691 13.339 34.979 13.4159C35.089 13.4928 35.2199 13.534 35.3541 13.5338V13.5338Z" fill="#87BEEE"/>
<path d="M35.3541 16.5445C35.5041 16.5447 35.6496 16.4932 35.7662 16.3989C35.8586 16.3242 38.0767 14.583 42.2443 15.6786C42.4118 15.7226 42.5899 15.6983 42.7395 15.611C42.8891 15.5237 42.9979 15.3805 43.042 15.213C43.086 15.0455 43.0617 14.8673 42.9744 14.7177C42.8871 14.5682 42.7439 14.4594 42.5764 14.4153C37.723 13.1397 35.0471 15.2985 34.9355 15.3909C34.8324 15.4768 34.7583 15.5923 34.7233 15.7219C34.6883 15.8514 34.694 15.9885 34.7398 16.1147C34.7856 16.2408 34.8691 16.3497 34.979 16.4266C35.089 16.5036 35.2199 16.5447 35.3541 16.5445Z" fill="#87BEEE"/>
<path d="M20.7742 9.65687C24.9335 8.56331 27.1517 10.2961 27.2517 10.3767C27.3853 10.4869 27.5572 10.5396 27.7297 10.523C27.9021 10.5065 28.0609 10.4222 28.1711 10.2886C28.2813 10.155 28.334 9.98304 28.3174 9.81062C28.3009 9.6382 28.2166 9.47941 28.083 9.36918C27.9715 9.27664 25.2957 7.11797 20.442 8.3936C20.2745 8.43765 20.1314 8.54644 20.044 8.69603C19.9567 8.84563 19.9324 9.02379 19.9765 9.19131C20.0205 9.35883 20.1293 9.50199 20.2789 9.5893C20.4285 9.67661 20.6067 9.70091 20.7742 9.65687V9.65687Z" fill="#87BEEE"/>
<path d="M20.7742 12.6678C24.9339 11.5742 27.1517 13.3071 27.2517 13.3877C27.3853 13.4979 27.5573 13.5506 27.7297 13.534C27.9021 13.5175 28.0609 13.4332 28.1711 13.2995C28.2813 13.1659 28.334 12.994 28.3175 12.8216C28.3009 12.6492 28.2166 12.4904 28.083 12.3802C27.9715 12.2877 25.2961 10.1289 20.442 11.4046C20.2745 11.4486 20.1314 11.5574 20.044 11.707C19.9567 11.8566 19.9324 12.0348 19.9765 12.2023C20.0205 12.3698 20.1293 12.513 20.2789 12.6003C20.4285 12.6876 20.6067 12.7119 20.7742 12.6678V12.6678Z" fill="#87BEEE"/>
<path d="M20.7742 15.6786C24.9339 14.5851 27.1517 16.3179 27.2517 16.3985C27.3853 16.5087 27.5573 16.5614 27.7297 16.5448C27.9021 16.5283 28.0609 16.4439 28.1711 16.3103C28.2813 16.1767 28.334 16.0048 28.3175 15.8324C28.3009 15.66 28.2166 15.5012 28.083 15.3909C27.9715 15.2985 25.2961 13.1396 20.442 14.4154C20.2745 14.4594 20.1314 14.5682 20.044 14.7178C19.9567 14.8674 19.9324 15.0456 19.9765 15.2131C20.0205 15.3806 20.1293 15.5238 20.2789 15.6111C20.4285 15.6984 20.6067 15.7227 20.7742 15.6786V15.6786Z" fill="#87BEEE"/>
<path d="M7.27484 23.5277C7.44804 23.5277 7.61415 23.4589 7.73663 23.3364C7.8591 23.214 7.9279 23.0479 7.9279 22.8747V14.6729C7.92861 14.05 8.17638 13.4528 8.61684 13.0124C9.0573 12.5719 9.65449 12.3242 10.2774 12.3235H11.1032C11.2764 12.3235 11.4425 12.2547 11.5649 12.1322C11.6874 12.0097 11.7562 11.8436 11.7562 11.6704C11.7562 11.4972 11.6874 11.3311 11.5649 11.2086C11.4425 11.0861 11.2764 11.0173 11.1032 11.0173H10.2774C9.3082 11.0184 8.37903 11.4039 7.69371 12.0892C7.0084 12.7745 6.62289 13.7037 6.62178 14.6729V22.8747C6.62178 23.0479 6.69059 23.214 6.81306 23.3364C6.93553 23.4589 7.10164 23.5277 7.27484 23.5277V23.5277Z" fill="#87BEEE"/>
<path d="M52.0727 12.3234H52.8983C53.5212 12.3241 54.1184 12.5719 54.5589 13.0123C54.9993 13.4528 55.2471 14.05 55.2478 14.6729V22.8747C55.2478 23.0479 55.3166 23.214 55.4391 23.3365C55.5615 23.4589 55.7277 23.5277 55.9009 23.5277C56.0741 23.5277 56.2402 23.4589 56.3626 23.3365C56.4851 23.214 56.5539 23.0479 56.5539 22.8747V14.6729C56.5528 13.7037 56.1673 12.7745 55.482 12.0892C54.7967 11.4039 53.8675 11.0184 52.8983 11.0173H52.0727C51.8995 11.0173 51.7334 11.0861 51.6109 11.2086C51.4884 11.3311 51.4196 11.4972 51.4196 11.6704C51.4196 11.8436 51.4884 12.0097 51.6109 12.1322C51.7334 12.2547 51.8995 12.3235 52.0727 12.3235V12.3234Z" fill="#87BEEE"/>
</g>
<defs>
<clipPath id="clip0">
<rect width="64.2612" height="64" fill="white"/>
</clipPath>
</defs>
</svg>
